<?xml version="1.0" encoding="UTF-8" standalone="no"?>
<!DOCTYPE svg PUBLIC "-//W3C//DTD SVG 1.1//EN"
 "http://www.w3.org/Graphics/SVG/1.1/DTD/svg11.dtd">
<!-- Generated by graphviz version 2.40.1 (20161225.0304)
 -->
<!-- Title: dependencies Pages: 1 -->
<svg width="504pt" height="211pt"
 viewBox="0.00 0.00 504.00 211.00" xmlns="http://www.w3.org/2000/svg" xmlns:xlink="http://www.w3.org/1999/xlink">
<g id="graph0" class="graph" transform="scale(1 1) rotate(0) translate(4 207)">
<title>dependencies</title>
<polygon fill="#ffffff" stroke="transparent" points="-4,4 -4,-207 500,-207 500,4 -4,4"/>
<text text-anchor="start" x="227.0091" y="-42.4" font-family="sans-serif" font-weight="bold" font-size="14.00" fill="#000000">Legend</text>
<polygon fill="#ffffb3" stroke="transparent" points="14,-10 14,-30 34,-30 34,-10 14,-10"/>
<text text-anchor="start" x="37.629" y="-15.4" font-family="sans-serif" font-size="14.00" fill="#000000"> &#160;Declarations</text>
<polygon fill="#8dd3c7" stroke="transparent" points="127,-10 127,-30 147,-30 147,-10 127,-10"/>
<text text-anchor="start" x="150.7251" y="-15.4" font-family="sans-serif" font-size="14.00" fill="#000000"> &#160;Module</text>
<polygon fill="#80b1d3" stroke="transparent" points="213,-10 213,-30 233,-30 233,-10 213,-10"/>
<text text-anchor="start" x="236.7812" y="-15.4" font-family="sans-serif" font-size="14.00" fill="#000000"> &#160;Bootstrap</text>
<polygon fill="#fdb462" stroke="transparent" points="310,-10 310,-30 330,-30 330,-10 310,-10"/>
<text text-anchor="start" x="333.6732" y="-15.4" font-family="sans-serif" font-size="14.00" fill="#000000"> &#160;Providers</text>
<polygon fill="#fb8072" stroke="transparent" points="406,-10 406,-30 426,-30 426,-10 406,-10"/>
<text text-anchor="start" x="429.7258" y="-15.4" font-family="sans-serif" font-size="14.00" fill="#000000"> &#160;Exports</text>
<g id="clust1" class="cluster">
<title>cluster_PlaylistModule</title>
<polygon fill="none" stroke="#000000" stroke-dasharray="1,5" points="96.5,-70 96.5,-195 399.5,-195 399.5,-70 96.5,-70"/>
</g>
<g id="clust3" class="cluster">
<title>cluster_PlaylistModule_imports</title>
<polygon fill="none" stroke="#000000" points="104.5,-78 104.5,-130 391.5,-130 391.5,-78 104.5,-78"/>
</g>
<!-- MaterialModule -->
<g id="node1" class="node">
<title>MaterialModule</title>
<polygon fill="#8dd3c7" stroke="#000000" points="383.9706,-122 380.9706,-126 359.9706,-126 356.9706,-122 277.0294,-122 277.0294,-86 383.9706,-86 383.9706,-122"/>
<text text-anchor="middle" x="330.5" y="-99.8" font-family="Times,serif" font-size="14.00" fill="#000000">MaterialModule</text>
</g>
<!-- PlaylistModule -->
<g id="node3" class="node">
<title>PlaylistModule</title>
<polygon fill="#8dd3c7" stroke="#000000" points="308.055,-187 305.055,-191 284.055,-191 281.055,-187 206.945,-187 206.945,-151 308.055,-151 308.055,-187"/>
<text text-anchor="middle" x="257.5" y="-164.8" font-family="Times,serif" font-size="14.00" fill="#000000">PlaylistModule</text>
</g>
<!-- MaterialModule&#45;&gt;PlaylistModule -->
<g id="edge1" class="edge">
<title>MaterialModule&#45;&gt;PlaylistModule</title>
<path fill="none" stroke="#000000" d="M292.6459,-122.1061C292.6459,-122.1061 292.6459,-140.991 292.6459,-140.991"/>
<polygon fill="#000000" stroke="#000000" points="289.1459,-140.9909 292.6459,-150.991 296.1459,-140.991 289.1459,-140.9909"/>
</g>
<!-- PlaylistRoutingModule -->
<g id="node2" class="node">
<title>PlaylistRoutingModule</title>
<polygon fill="#8dd3c7" stroke="#000000" points="258.6722,-122 255.6722,-126 234.6722,-126 231.6722,-122 112.3278,-122 112.3278,-86 258.6722,-86 258.6722,-122"/>
<text text-anchor="middle" x="185.5" y="-99.8" font-family="Times,serif" font-size="14.00" fill="#000000">PlaylistRoutingModule</text>
</g>
<!-- PlaylistRoutingModule&#45;&gt;PlaylistModule -->
<g id="edge2" class="edge">
<title>PlaylistRoutingModule&#45;&gt;PlaylistModule</title>
<path fill="none" stroke="#000000" d="M232.7795,-122.1061C232.7795,-122.1061 232.7795,-140.991 232.7795,-140.991"/>
<polygon fill="#000000" stroke="#000000" points="229.2795,-140.9909 232.7795,-150.991 236.2795,-140.991 229.2795,-140.9909"/>
</g>
</g>
</svg>
