<?xml version="1.0" encoding="UTF-8" standalone="no"?>
<!DOCTYPE svg PUBLIC "-//W3C//DTD SVG 1.1//EN"
 "http://www.w3.org/Graphics/SVG/1.1/DTD/svg11.dtd">
<!-- Generated by graphviz version 2.40.1 (20161225.0304)
 -->
<!-- Title: dependencies Pages: 1 -->
<svg width="1489pt" height="284pt"
 viewBox="0.00 0.00 1489.00 284.00" xmlns="http://www.w3.org/2000/svg" xmlns:xlink="http://www.w3.org/1999/xlink">
<g id="graph0" class="graph" transform="scale(1 1) rotate(0) translate(4 280)">
<title>dependencies</title>
<polygon fill="#ffffff" stroke="transparent" points="-4,4 -4,-280 1485,-280 1485,4 -4,4"/>
<text text-anchor="start" x="719.5091" y="-42.4" font-family="sans-serif" font-weight="bold" font-size="14.00" fill="#000000">Legend</text>
<polygon fill="#ffffb3" stroke="transparent" points="506.5,-10 506.5,-30 526.5,-30 526.5,-10 506.5,-10"/>
<text text-anchor="start" x="530.129" y="-15.4" font-family="sans-serif" font-size="14.00" fill="#000000"> &#160;Declarations</text>
<polygon fill="#8dd3c7" stroke="transparent" points="619.5,-10 619.5,-30 639.5,-30 639.5,-10 619.5,-10"/>
<text text-anchor="start" x="643.2251" y="-15.4" font-family="sans-serif" font-size="14.00" fill="#000000"> &#160;Module</text>
<polygon fill="#80b1d3" stroke="transparent" points="705.5,-10 705.5,-30 725.5,-30 725.5,-10 705.5,-10"/>
<text text-anchor="start" x="729.2812" y="-15.4" font-family="sans-serif" font-size="14.00" fill="#000000"> &#160;Bootstrap</text>
<polygon fill="#fdb462" stroke="transparent" points="802.5,-10 802.5,-30 822.5,-30 822.5,-10 802.5,-10"/>
<text text-anchor="start" x="826.1732" y="-15.4" font-family="sans-serif" font-size="14.00" fill="#000000"> &#160;Providers</text>
<polygon fill="#fb8072" stroke="transparent" points="898.5,-10 898.5,-30 918.5,-30 918.5,-10 898.5,-10"/>
<text text-anchor="start" x="922.2258" y="-15.4" font-family="sans-serif" font-size="14.00" fill="#000000"> &#160;Exports</text>
<g id="clust1" class="cluster">
<title>cluster_UserModule</title>
<polygon fill="none" stroke="#000000" stroke-dasharray="1,5" points="8,-70 8,-268 1473,-268 1473,-70 8,-70"/>
</g>
<g id="clust2" class="cluster">
<title>cluster_UserModule_declarations</title>
<polygon fill="none" stroke="#000000" points="669,-78 669,-130 1465,-130 1465,-78 669,-78"/>
</g>
<g id="clust8" class="cluster">
<title>cluster_UserModule_imports</title>
<polygon fill="none" stroke="#000000" points="16,-78 16,-130 661,-130 661,-78 16,-78"/>
</g>
<g id="clust9" class="cluster">
<title>cluster_UserModule_exports</title>
<polygon fill="none" stroke="#000000" points="596,-208 596,-260 754,-260 754,-208 596,-208"/>
</g>
<!-- AppHomeComponent -->
<g id="node1" class="node">
<title>AppHomeComponent</title>
<polygon fill="#ffffb3" stroke="#000000" points="1456.6512,-122 1317.3488,-122 1317.3488,-86 1456.6512,-86 1456.6512,-122"/>
<text text-anchor="middle" x="1387" y="-99.8" font-family="Times,serif" font-size="14.00" fill="#000000">AppHomeComponent</text>
</g>
<!-- UserModule -->
<g id="node6" class="node">
<title>UserModule</title>
<polygon fill="#8dd3c7" stroke="#000000" points="717.9762,-187 714.9762,-191 693.9762,-191 690.9762,-187 632.0238,-187 632.0238,-151 717.9762,-151 717.9762,-187"/>
<text text-anchor="middle" x="675" y="-164.8" font-family="Times,serif" font-size="14.00" fill="#000000">UserModule</text>
</g>
<!-- AppHomeComponent&#45;&gt;UserModule -->
<g id="edge1" class="edge">
<title>AppHomeComponent&#45;&gt;UserModule</title>
<path fill="none" stroke="#000000" d="M1387,-122.0109C1387,-144.4852 1387,-180 1387,-180 1387,-180 728.2008,-180 728.2008,-180"/>
<polygon fill="#000000" stroke="#000000" points="728.2009,-176.5001 718.2008,-180 728.2008,-183.5001 728.2009,-176.5001"/>
</g>
<!-- FollowingComponent -->
<g id="node2" class="node">
<title>FollowingComponent</title>
<polygon fill="#ffffb3" stroke="#000000" points="1299.3934,-122 1160.6066,-122 1160.6066,-86 1299.3934,-86 1299.3934,-122"/>
<text text-anchor="middle" x="1230" y="-99.8" font-family="Times,serif" font-size="14.00" fill="#000000">FollowingComponent</text>
</g>
<!-- FollowingComponent&#45;&gt;UserModule -->
<g id="edge2" class="edge">
<title>FollowingComponent&#45;&gt;UserModule</title>
<path fill="none" stroke="#000000" d="M1230,-122.1289C1230,-142.5724 1230,-173 1230,-173 1230,-173 728.0881,-173 728.0881,-173"/>
<polygon fill="#000000" stroke="#000000" points="728.0881,-169.5001 718.0881,-173 728.0881,-176.5001 728.0881,-169.5001"/>
</g>
<!-- LoginComponent -->
<g id="node3" class="node">
<title>LoginComponent</title>
<polygon fill="#ffffb3" stroke="#000000" points="1142.2758,-122 1027.7242,-122 1027.7242,-86 1142.2758,-86 1142.2758,-122"/>
<text text-anchor="middle" x="1085" y="-99.8" font-family="Times,serif" font-size="14.00" fill="#000000">LoginComponent</text>
</g>
<!-- LoginComponent&#45;&gt;UserModule -->
<g id="edge3" class="edge">
<title>LoginComponent&#45;&gt;UserModule</title>
<path fill="none" stroke="#000000" d="M1085,-122.2667C1085,-140.5552 1085,-166 1085,-166 1085,-166 728.1023,-166 728.1023,-166"/>
<polygon fill="#000000" stroke="#000000" points="728.1023,-162.5001 718.1023,-166 728.1022,-169.5001 728.1023,-162.5001"/>
</g>
<!-- UserDashboardComponent -->
<g id="node4" class="node">
<title>UserDashboardComponent</title>
<polygon fill="#ffffb3" stroke="#000000" points="1009.4003,-122 840.5997,-122 840.5997,-86 1009.4003,-86 1009.4003,-122"/>
<text text-anchor="middle" x="925" y="-99.8" font-family="Times,serif" font-size="14.00" fill="#000000">UserDashboardComponent</text>
</g>
<!-- UserDashboardComponent&#45;&gt;UserModule -->
<g id="edge4" class="edge">
<title>UserDashboardComponent&#45;&gt;UserModule</title>
<path fill="none" stroke="#000000" d="M925,-122.0091C925,-138.0494 925,-159 925,-159 925,-159 727.9765,-159 727.9765,-159"/>
<polygon fill="#000000" stroke="#000000" points="727.9766,-155.5001 717.9765,-159 727.9765,-162.5001 727.9766,-155.5001"/>
</g>
<!-- UserprofileComponent -->
<g id="node5" class="node">
<title>UserprofileComponent</title>
<polygon fill="#ffffb3" stroke="#000000" points="822.5758,-122 677.4242,-122 677.4242,-86 822.5758,-86 822.5758,-122"/>
<text text-anchor="middle" x="750" y="-99.8" font-family="Times,serif" font-size="14.00" fill="#000000">UserprofileComponent</text>
</g>
<!-- UserprofileComponent&#45;&gt;UserModule -->
<g id="edge5" class="edge">
<title>UserprofileComponent&#45;&gt;UserModule</title>
<path fill="none" stroke="#000000" d="M697.7251,-122.1061C697.7251,-122.1061 697.7251,-140.991 697.7251,-140.991"/>
<polygon fill="#000000" stroke="#000000" points="694.2252,-140.9909 697.7251,-150.991 701.2252,-140.991 694.2252,-140.9909"/>
</g>
<!-- FollowingComponent  -->
<g id="node12" class="node">
<title>FollowingComponent </title>
<polygon fill="#fb8072" stroke="#000000" points="746.3939,-252 603.6061,-252 603.6061,-216 746.3939,-216 746.3939,-252"/>
<text text-anchor="middle" x="675" y="-229.8" font-family="Times,serif" font-size="14.00" fill="#000000">FollowingComponent </text>
</g>
<!-- UserModule&#45;&gt;FollowingComponent  -->
<g id="edge11" class="edge">
<title>UserModule&#45;&gt;FollowingComponent </title>
<path fill="none" stroke="#000000" stroke-dasharray="5,2" d="M675,-187.1061C675,-187.1061 675,-205.991 675,-205.991"/>
<polygon fill="#000000" stroke="#000000" points="671.5001,-205.9909 675,-215.991 678.5001,-205.991 671.5001,-205.9909"/>
</g>
<!-- ChatbotModule -->
<g id="node7" class="node">
<title>ChatbotModule</title>
<polygon fill="#8dd3c7" stroke="#000000" points="652.8823,-122 649.8823,-126 628.8823,-126 625.8823,-122 549.1177,-122 549.1177,-86 652.8823,-86 652.8823,-122"/>
<text text-anchor="middle" x="601" y="-99.8" font-family="Times,serif" font-size="14.00" fill="#000000">ChatbotModule</text>
</g>
<!-- ChatbotModule&#45;&gt;UserModule -->
<g id="edge6" class="edge">
<title>ChatbotModule&#45;&gt;UserModule</title>
<path fill="none" stroke="#000000" d="M642.4765,-122.1061C642.4765,-122.1061 642.4765,-140.991 642.4765,-140.991"/>
<polygon fill="#000000" stroke="#000000" points="638.9766,-140.9909 642.4765,-150.991 645.9766,-140.991 638.9766,-140.9909"/>
</g>
<!-- DocumentModule -->
<g id="node8" class="node">
<title>DocumentModule</title>
<polygon fill="#8dd3c7" stroke="#000000" points="530.8669,-122 527.8669,-126 506.8669,-126 503.8669,-122 413.1331,-122 413.1331,-86 530.8669,-86 530.8669,-122"/>
<text text-anchor="middle" x="472" y="-99.8" font-family="Times,serif" font-size="14.00" fill="#000000">DocumentModule</text>
</g>
<!-- DocumentModule&#45;&gt;UserModule -->
<g id="edge7" class="edge">
<title>DocumentModule&#45;&gt;UserModule</title>
<path fill="none" stroke="#000000" d="M472,-122.0091C472,-138.0494 472,-159 472,-159 472,-159 621.9489,-159 621.9489,-159"/>
<polygon fill="#000000" stroke="#000000" points="621.949,-162.5001 631.9489,-159 621.9489,-155.5001 621.949,-162.5001"/>
</g>
<!-- MaterialModule -->
<g id="node9" class="node">
<title>MaterialModule</title>
<polygon fill="#8dd3c7" stroke="#000000" points="395.4706,-122 392.4706,-126 371.4706,-126 368.4706,-122 288.5294,-122 288.5294,-86 395.4706,-86 395.4706,-122"/>
<text text-anchor="middle" x="342" y="-99.8" font-family="Times,serif" font-size="14.00" fill="#000000">MaterialModule</text>
</g>
<!-- MaterialModule&#45;&gt;UserModule -->
<g id="edge8" class="edge">
<title>MaterialModule&#45;&gt;UserModule</title>
<path fill="none" stroke="#000000" d="M342,-122.2667C342,-140.5552 342,-166 342,-166 342,-166 621.8075,-166 621.8075,-166"/>
<polygon fill="#000000" stroke="#000000" points="621.8075,-169.5001 631.8075,-166 621.8074,-162.5001 621.8075,-169.5001"/>
</g>
<!-- TopicsModule -->
<g id="node10" class="node">
<title>TopicsModule</title>
<polygon fill="#8dd3c7" stroke="#000000" points="270.6528,-122 267.6528,-126 246.6528,-126 243.6528,-122 173.3472,-122 173.3472,-86 270.6528,-86 270.6528,-122"/>
<text text-anchor="middle" x="222" y="-99.8" font-family="Times,serif" font-size="14.00" fill="#000000">TopicsModule</text>
</g>
<!-- TopicsModule&#45;&gt;UserModule -->
<g id="edge9" class="edge">
<title>TopicsModule&#45;&gt;UserModule</title>
<path fill="none" stroke="#000000" d="M222,-122.1289C222,-142.5724 222,-173 222,-173 222,-173 621.9745,-173 621.9745,-173"/>
<polygon fill="#000000" stroke="#000000" points="621.9745,-176.5001 631.9745,-173 621.9744,-169.5001 621.9745,-176.5001"/>
</g>
<!-- UserRoutingModule -->
<g id="node11" class="node">
<title>UserRoutingModule</title>
<polygon fill="#8dd3c7" stroke="#000000" points="155.594,-122 152.594,-126 131.594,-126 128.594,-122 24.406,-122 24.406,-86 155.594,-86 155.594,-122"/>
<text text-anchor="middle" x="90" y="-99.8" font-family="Times,serif" font-size="14.00" fill="#000000">UserRoutingModule</text>
</g>
<!-- UserRoutingModule&#45;&gt;UserModule -->
<g id="edge10" class="edge">
<title>UserRoutingModule&#45;&gt;UserModule</title>
<path fill="none" stroke="#000000" d="M90,-122.0109C90,-144.4852 90,-180 90,-180 90,-180 621.9836,-180 621.9836,-180"/>
<polygon fill="#000000" stroke="#000000" points="621.9836,-183.5001 631.9836,-180 621.9835,-176.5001 621.9836,-183.5001"/>
</g>
</g>
</svg>
