<?xml version="1.0" encoding="UTF-8" standalone="no"?>
<!DOCTYPE svg PUBLIC "-//W3C//DTD SVG 1.1//EN"
 "http://www.w3.org/Graphics/SVG/1.1/DTD/svg11.dtd">
<!-- Generated by graphviz version 2.40.1 (20161225.0304)
 -->
<!-- Title: dependencies Pages: 1 -->
<svg width="979pt" height="284pt"
 viewBox="0.00 0.00 979.00 284.00" xmlns="http://www.w3.org/2000/svg" xmlns:xlink="http://www.w3.org/1999/xlink">
<g id="graph0" class="graph" transform="scale(1 1) rotate(0) translate(4 280)">
<title>dependencies</title>
<polygon fill="#ffffff" stroke="transparent" points="-4,4 -4,-280 975,-280 975,4 -4,4"/>
<text text-anchor="start" x="464.5091" y="-42.4" font-family="sans-serif" font-weight="bold" font-size="14.00" fill="#000000">Legend</text>
<polygon fill="#ffffb3" stroke="transparent" points="251.5,-10 251.5,-30 271.5,-30 271.5,-10 251.5,-10"/>
<text text-anchor="start" x="275.129" y="-15.4" font-family="sans-serif" font-size="14.00" fill="#000000"> &#160;Declarations</text>
<polygon fill="#8dd3c7" stroke="transparent" points="364.5,-10 364.5,-30 384.5,-30 384.5,-10 364.5,-10"/>
<text text-anchor="start" x="388.2251" y="-15.4" font-family="sans-serif" font-size="14.00" fill="#000000"> &#160;Module</text>
<polygon fill="#80b1d3" stroke="transparent" points="450.5,-10 450.5,-30 470.5,-30 470.5,-10 450.5,-10"/>
<text text-anchor="start" x="474.2812" y="-15.4" font-family="sans-serif" font-size="14.00" fill="#000000"> &#160;Bootstrap</text>
<polygon fill="#fdb462" stroke="transparent" points="547.5,-10 547.5,-30 567.5,-30 567.5,-10 547.5,-10"/>
<text text-anchor="start" x="571.1732" y="-15.4" font-family="sans-serif" font-size="14.00" fill="#000000"> &#160;Providers</text>
<polygon fill="#fb8072" stroke="transparent" points="643.5,-10 643.5,-30 663.5,-30 663.5,-10 643.5,-10"/>
<text text-anchor="start" x="667.2258" y="-15.4" font-family="sans-serif" font-size="14.00" fill="#000000"> &#160;Exports</text>
<g id="clust1" class="cluster">
<title>cluster_DocumentModule</title>
<polygon fill="none" stroke="#000000" stroke-dasharray="1,5" points="8,-70 8,-268 963,-268 963,-70 8,-70"/>
</g>
<g id="clust2" class="cluster">
<title>cluster_DocumentModule_declarations</title>
<polygon fill="none" stroke="#000000" points="327,-78 327,-130 955,-130 955,-78 327,-78"/>
</g>
<g id="clust7" class="cluster">
<title>cluster_DocumentModule_imports</title>
<polygon fill="none" stroke="#000000" points="16,-78 16,-130 319,-130 319,-78 16,-78"/>
</g>
<g id="clust8" class="cluster">
<title>cluster_DocumentModule_exports</title>
<polygon fill="none" stroke="#000000" points="404,-208 404,-260 584,-260 584,-208 404,-208"/>
</g>
<!-- AddDocumentComponent -->
<g id="node1" class="node">
<title>AddDocumentComponent</title>
<polygon fill="#ffffb3" stroke="#000000" points="946.7562,-122 783.2438,-122 783.2438,-86 946.7562,-86 946.7562,-122"/>
<text text-anchor="middle" x="865" y="-99.8" font-family="Times,serif" font-size="14.00" fill="#000000">AddDocumentComponent</text>
</g>
<!-- DocumentModule -->
<g id="node5" class="node">
<title>DocumentModule</title>
<polygon fill="#8dd3c7" stroke="#000000" points="552.8669,-187 549.8669,-191 528.8669,-191 525.8669,-187 435.1331,-187 435.1331,-151 552.8669,-151 552.8669,-187"/>
<text text-anchor="middle" x="494" y="-164.8" font-family="Times,serif" font-size="14.00" fill="#000000">DocumentModule</text>
</g>
<!-- AddDocumentComponent&#45;&gt;DocumentModule -->
<g id="edge1" class="edge">
<title>AddDocumentComponent&#45;&gt;DocumentModule</title>
<path fill="none" stroke="#000000" d="M865,-122.2843C865,-143.3211 865,-175 865,-175 865,-175 563.1963,-175 563.1963,-175"/>
<polygon fill="#000000" stroke="#000000" points="563.1963,-171.5001 553.1963,-175 563.1963,-178.5001 563.1963,-171.5001"/>
</g>
<!-- CardsComponent -->
<g id="node2" class="node">
<title>CardsComponent</title>
<polygon fill="#ffffb3" stroke="#000000" points="764.9888,-122 651.0112,-122 651.0112,-86 764.9888,-86 764.9888,-122"/>
<text text-anchor="middle" x="708" y="-99.8" font-family="Times,serif" font-size="14.00" fill="#000000">CardsComponent</text>
</g>
<!-- CardsComponent&#45;&gt;DocumentModule -->
<g id="edge2" class="edge">
<title>CardsComponent&#45;&gt;DocumentModule</title>
<path fill="none" stroke="#000000" d="M708,-122.0225C708,-139.3734 708,-163 708,-163 708,-163 563.0429,-163 563.0429,-163"/>
<polygon fill="#000000" stroke="#000000" points="563.043,-159.5001 553.0429,-163 563.0429,-166.5001 563.043,-159.5001"/>
</g>
<!-- SearchComponent -->
<g id="node3" class="node">
<title>SearchComponent</title>
<polygon fill="#ffffb3" stroke="#000000" points="632.9201,-122 513.0799,-122 513.0799,-86 632.9201,-86 632.9201,-122"/>
<text text-anchor="middle" x="573" y="-99.8" font-family="Times,serif" font-size="14.00" fill="#000000">SearchComponent</text>
</g>
<!-- SearchComponent&#45;&gt;DocumentModule -->
<g id="edge3" class="edge">
<title>SearchComponent&#45;&gt;DocumentModule</title>
<path fill="none" stroke="#000000" d="M533.1119,-122.1061C533.1119,-122.1061 533.1119,-140.991 533.1119,-140.991"/>
<polygon fill="#000000" stroke="#000000" points="529.6119,-140.9909 533.1119,-150.991 536.6119,-140.991 529.6119,-140.9909"/>
</g>
<!-- SearchHeaderComponent -->
<g id="node4" class="node">
<title>SearchHeaderComponent</title>
<polygon fill="#ffffb3" stroke="#000000" points="494.8305,-122 335.1695,-122 335.1695,-86 494.8305,-86 494.8305,-122"/>
<text text-anchor="middle" x="415" y="-99.8" font-family="Times,serif" font-size="14.00" fill="#000000">SearchHeaderComponent</text>
</g>
<!-- SearchHeaderComponent&#45;&gt;DocumentModule -->
<g id="edge4" class="edge">
<title>SearchHeaderComponent&#45;&gt;DocumentModule</title>
<path fill="none" stroke="#000000" d="M464.9909,-122.1061C464.9909,-122.1061 464.9909,-140.991 464.9909,-140.991"/>
<polygon fill="#000000" stroke="#000000" points="461.491,-140.9909 464.9909,-150.991 468.491,-140.991 461.491,-140.9909"/>
</g>
<!-- SearchHeaderComponent  -->
<g id="node8" class="node">
<title>SearchHeaderComponent </title>
<polygon fill="#fb8072" stroke="#000000" points="575.8307,-252 412.1693,-252 412.1693,-216 575.8307,-216 575.8307,-252"/>
<text text-anchor="middle" x="494" y="-229.8" font-family="Times,serif" font-size="14.00" fill="#000000">SearchHeaderComponent </text>
</g>
<!-- DocumentModule&#45;&gt;SearchHeaderComponent  -->
<g id="edge7" class="edge">
<title>DocumentModule&#45;&gt;SearchHeaderComponent </title>
<path fill="none" stroke="#000000" stroke-dasharray="5,2" d="M494,-187.1061C494,-187.1061 494,-205.991 494,-205.991"/>
<polygon fill="#000000" stroke="#000000" points="490.5001,-205.9909 494,-215.991 497.5001,-205.991 490.5001,-205.9909"/>
</g>
<!-- DocumentRoutingModule -->
<g id="node6" class="node">
<title>DocumentRoutingModule</title>
<polygon fill="#8dd3c7" stroke="#000000" points="311.4846,-122 308.4846,-126 287.4846,-126 284.4846,-122 148.5154,-122 148.5154,-86 311.4846,-86 311.4846,-122"/>
<text text-anchor="middle" x="230" y="-99.8" font-family="Times,serif" font-size="14.00" fill="#000000">DocumentRoutingModule</text>
</g>
<!-- DocumentRoutingModule&#45;&gt;DocumentModule -->
<g id="edge5" class="edge">
<title>DocumentRoutingModule&#45;&gt;DocumentModule</title>
<path fill="none" stroke="#000000" d="M230,-122.0225C230,-139.3734 230,-163 230,-163 230,-163 425.0818,-163 425.0818,-163"/>
<polygon fill="#000000" stroke="#000000" points="425.0819,-166.5001 435.0818,-163 425.0818,-159.5001 425.0819,-166.5001"/>
</g>
<!-- MaterialModule -->
<g id="node7" class="node">
<title>MaterialModule</title>
<polygon fill="#8dd3c7" stroke="#000000" points="130.4706,-122 127.4706,-126 106.4706,-126 103.4706,-122 23.5294,-122 23.5294,-86 130.4706,-86 130.4706,-122"/>
<text text-anchor="middle" x="77" y="-99.8" font-family="Times,serif" font-size="14.00" fill="#000000">MaterialModule</text>
</g>
<!-- MaterialModule&#45;&gt;DocumentModule -->
<g id="edge6" class="edge">
<title>MaterialModule&#45;&gt;DocumentModule</title>
<path fill="none" stroke="#000000" d="M77,-122.2843C77,-143.3211 77,-175 77,-175 77,-175 424.6969,-175 424.6969,-175"/>
<polygon fill="#000000" stroke="#000000" points="424.697,-178.5001 434.6969,-175 424.6969,-171.5001 424.697,-178.5001"/>
</g>
</g>
</svg>
