<?xml version="1.0" encoding="UTF-8" standalone="no"?>
<!DOCTYPE svg PUBLIC "-//W3C//DTD SVG 1.1//EN"
 "http://www.w3.org/Graphics/SVG/1.1/DTD/svg11.dtd">
<!-- Generated by graphviz version 2.40.1 (20161225.0304)
 -->
<!-- Title: dependencies Pages: 1 -->
<svg width="636pt" height="284pt"
 viewBox="0.00 0.00 636.00 284.00" xmlns="http://www.w3.org/2000/svg" xmlns:xlink="http://www.w3.org/1999/xlink">
<g id="graph0" class="graph" transform="scale(1 1) rotate(0) translate(4 280)">
<title>dependencies</title>
<polygon fill="#ffffff" stroke="transparent" points="-4,4 -4,-280 632,-280 632,4 -4,4"/>
<text text-anchor="start" x="293.0091" y="-42.4" font-family="sans-serif" font-weight="bold" font-size="14.00" fill="#000000">Legend</text>
<polygon fill="#ffffb3" stroke="transparent" points="80,-10 80,-30 100,-30 100,-10 80,-10"/>
<text text-anchor="start" x="103.629" y="-15.4" font-family="sans-serif" font-size="14.00" fill="#000000"> &#160;Declarations</text>
<polygon fill="#8dd3c7" stroke="transparent" points="193,-10 193,-30 213,-30 213,-10 193,-10"/>
<text text-anchor="start" x="216.7251" y="-15.4" font-family="sans-serif" font-size="14.00" fill="#000000"> &#160;Module</text>
<polygon fill="#80b1d3" stroke="transparent" points="279,-10 279,-30 299,-30 299,-10 279,-10"/>
<text text-anchor="start" x="302.7812" y="-15.4" font-family="sans-serif" font-size="14.00" fill="#000000"> &#160;Bootstrap</text>
<polygon fill="#fdb462" stroke="transparent" points="376,-10 376,-30 396,-30 396,-10 376,-10"/>
<text text-anchor="start" x="399.6732" y="-15.4" font-family="sans-serif" font-size="14.00" fill="#000000"> &#160;Providers</text>
<polygon fill="#fb8072" stroke="transparent" points="472,-10 472,-30 492,-30 492,-10 472,-10"/>
<text text-anchor="start" x="495.7258" y="-15.4" font-family="sans-serif" font-size="14.00" fill="#000000"> &#160;Exports</text>
<g id="clust1" class="cluster">
<title>cluster_ChatbotModule</title>
<polygon fill="none" stroke="#000000" stroke-dasharray="1,5" points="8,-70 8,-268 620,-268 620,-70 8,-70"/>
</g>
<g id="clust2" class="cluster">
<title>cluster_ChatbotModule_declarations</title>
<polygon fill="none" stroke="#000000" points="286,-78 286,-130 612,-130 612,-78 286,-78"/>
</g>
<g id="clust5" class="cluster">
<title>cluster_ChatbotModule_imports</title>
<polygon fill="none" stroke="#000000" points="156,-78 156,-130 278,-130 278,-78 156,-78"/>
</g>
<g id="clust6" class="cluster">
<title>cluster_ChatbotModule_exports</title>
<polygon fill="none" stroke="#000000" points="123,-208 123,-260 456,-260 456,-208 123,-208"/>
</g>
<g id="clust8" class="cluster">
<title>cluster_ChatbotModule_providers</title>
<polygon fill="none" stroke="#000000" points="16,-78 16,-130 148,-130 148,-78 16,-78"/>
</g>
<!-- ChatButtonComponent -->
<g id="node1" class="node">
<title>ChatButtonComponent</title>
<polygon fill="#ffffb3" stroke="#000000" points="603.892,-122 458.108,-122 458.108,-86 603.892,-86 603.892,-122"/>
<text text-anchor="middle" x="531" y="-99.8" font-family="Times,serif" font-size="14.00" fill="#000000">ChatButtonComponent</text>
</g>
<!-- ChatbotModule -->
<g id="node3" class="node">
<title>ChatbotModule</title>
<polygon fill="#8dd3c7" stroke="#000000" points="340.8823,-187 337.8823,-191 316.8823,-191 313.8823,-187 237.1177,-187 237.1177,-151 340.8823,-151 340.8823,-187"/>
<text text-anchor="middle" x="289" y="-164.8" font-family="Times,serif" font-size="14.00" fill="#000000">ChatbotModule</text>
</g>
<!-- ChatButtonComponent&#45;&gt;ChatbotModule -->
<g id="edge1" class="edge">
<title>ChatButtonComponent&#45;&gt;ChatbotModule</title>
<path fill="none" stroke="#000000" d="M531,-122.1061C531,-141.3391 531,-169 531,-169 531,-169 350.9151,-169 350.9151,-169"/>
<polygon fill="#000000" stroke="#000000" points="350.9151,-165.5001 340.9151,-169 350.915,-172.5001 350.9151,-165.5001"/>
</g>
<!-- ChatDialogComponent -->
<g id="node2" class="node">
<title>ChatDialogComponent</title>
<polygon fill="#ffffb3" stroke="#000000" points="439.8767,-122 294.1233,-122 294.1233,-86 439.8767,-86 439.8767,-122"/>
<text text-anchor="middle" x="367" y="-99.8" font-family="Times,serif" font-size="14.00" fill="#000000">ChatDialogComponent</text>
</g>
<!-- ChatDialogComponent&#45;&gt;ChatbotModule -->
<g id="edge2" class="edge">
<title>ChatDialogComponent&#45;&gt;ChatbotModule</title>
<path fill="none" stroke="#000000" d="M317.5014,-122.1061C317.5014,-122.1061 317.5014,-140.991 317.5014,-140.991"/>
<polygon fill="#000000" stroke="#000000" points="314.0015,-140.9909 317.5014,-150.991 321.0015,-140.991 314.0015,-140.9909"/>
</g>
<!-- ChatButtonComponent  -->
<g id="node5" class="node">
<title>ChatButtonComponent </title>
<polygon fill="#fb8072" stroke="#000000" points="447.8925,-252 298.1075,-252 298.1075,-216 447.8925,-216 447.8925,-252"/>
<text text-anchor="middle" x="373" y="-229.8" font-family="Times,serif" font-size="14.00" fill="#000000">ChatButtonComponent </text>
</g>
<!-- ChatbotModule&#45;&gt;ChatButtonComponent  -->
<g id="edge4" class="edge">
<title>ChatbotModule&#45;&gt;ChatButtonComponent </title>
<path fill="none" stroke="#000000" stroke-dasharray="5,2" d="M319.6226,-187.1061C319.6226,-187.1061 319.6226,-205.991 319.6226,-205.991"/>
<polygon fill="#000000" stroke="#000000" points="316.1226,-205.9909 319.6226,-215.991 323.1226,-205.991 316.1226,-205.9909"/>
</g>
<!-- ChatDialogComponent  -->
<g id="node6" class="node">
<title>ChatDialogComponent </title>
<polygon fill="#fb8072" stroke="#000000" points="280.8771,-252 131.1229,-252 131.1229,-216 280.8771,-216 280.8771,-252"/>
<text text-anchor="middle" x="206" y="-229.8" font-family="Times,serif" font-size="14.00" fill="#000000">ChatDialogComponent </text>
</g>
<!-- ChatbotModule&#45;&gt;ChatDialogComponent  -->
<g id="edge5" class="edge">
<title>ChatbotModule&#45;&gt;ChatDialogComponent </title>
<path fill="none" stroke="#000000" stroke-dasharray="5,2" d="M258.8736,-187.1061C258.8736,-187.1061 258.8736,-205.991 258.8736,-205.991"/>
<polygon fill="#000000" stroke="#000000" points="255.3737,-205.9909 258.8736,-215.991 262.3737,-205.991 255.3737,-205.9909"/>
</g>
<!-- MaterialModule -->
<g id="node4" class="node">
<title>MaterialModule</title>
<polygon fill="#8dd3c7" stroke="#000000" points="270.4706,-122 267.4706,-126 246.4706,-126 243.4706,-122 163.5294,-122 163.5294,-86 270.4706,-86 270.4706,-122"/>
<text text-anchor="middle" x="217" y="-99.8" font-family="Times,serif" font-size="14.00" fill="#000000">MaterialModule</text>
</g>
<!-- MaterialModule&#45;&gt;ChatbotModule -->
<g id="edge3" class="edge">
<title>MaterialModule&#45;&gt;ChatbotModule</title>
<path fill="none" stroke="#000000" d="M253.7721,-122.1061C253.7721,-122.1061 253.7721,-140.991 253.7721,-140.991"/>
<polygon fill="#000000" stroke="#000000" points="250.2722,-140.9909 253.7721,-150.991 257.2722,-140.991 250.2722,-140.9909"/>
</g>
<!-- ChatService -->
<g id="node7" class="node">
<title>ChatService</title>
<ellipse fill="#fdb462" stroke="#000000" cx="82" cy="-104" rx="58.4628" ry="18"/>
<text text-anchor="middle" x="82" y="-99.8" font-family="Times,serif" font-size="14.00" fill="#000000">ChatService</text>
</g>
<!-- ChatService&#45;&gt;ChatbotModule -->
<g id="edge6" class="edge">
<title>ChatService&#45;&gt;ChatbotModule</title>
<path fill="none" stroke="#000000" d="M135.7713,-110.9561C135.7713,-127.7244 135.7713,-169 135.7713,-169 135.7713,-169 226.696,-169 226.696,-169"/>
<polygon fill="#000000" stroke="#000000" points="226.696,-172.5001 236.696,-169 226.6959,-165.5001 226.696,-172.5001"/>
</g>
</g>
</svg>
